<svg width="881" height="982" viewBox="0 0 881 982" fill="none" xmlns="http://www.w3.org/2000/svg">
<g clip-path="url(#clip0_56_282)">
<rect width="881" height="982" fill="url(#paint0_linear_56_282)"/>
<path d="M136.24 609V593.784H130.096V592.08H144.376V593.784H138.232V609H136.24ZM143.713 609V597.336H145.609V599.424C146.233 598.016 147.513 597.24 149.449 597.096L150.145 597.024L150.289 598.704L149.065 598.848C147.961 598.944 147.121 599.296 146.545 599.904C145.969 600.496 145.681 601.312 145.681 602.352V609H143.713ZM155.15 609.216C154.35 609.216 153.63 609.064 152.99 608.76C152.366 608.44 151.87 608.008 151.502 607.464C151.134 606.92 150.95 606.312 150.95 605.64C150.95 604.792 151.166 604.12 151.598 603.624C152.046 603.128 152.774 602.776 153.782 602.568C154.806 602.344 156.198 602.232 157.958 602.232H158.726V601.488C158.726 600.496 158.518 599.784 158.102 599.352C157.702 598.904 157.054 598.68 156.158 598.68C155.454 598.68 154.774 598.784 154.118 598.992C153.462 599.184 152.79 599.504 152.102 599.952L151.43 598.536C152.038 598.104 152.774 597.76 153.638 597.504C154.518 597.248 155.358 597.12 156.158 597.12C157.662 597.12 158.774 597.488 159.494 598.224C160.23 598.96 160.598 600.104 160.598 601.656V609H158.774V606.984C158.47 607.672 157.998 608.216 157.358 608.616C156.734 609.016 155.998 609.216 155.15 609.216ZM155.462 607.752C156.422 607.752 157.206 607.424 157.814 606.768C158.422 606.096 158.726 605.248 158.726 604.224V603.504H157.982C156.686 603.504 155.662 603.568 154.91 603.696C154.174 603.808 153.654 604.016 153.35 604.32C153.062 604.608 152.918 605.008 152.918 605.52C152.918 606.176 153.142 606.712 153.59 607.128C154.054 607.544 154.678 607.752 155.462 607.752ZM168.428 609.216C167.26 609.216 166.252 608.968 165.404 608.472C164.556 607.96 163.9 607.248 163.436 606.336C162.988 605.408 162.764 604.328 162.764 603.096C162.764 601.24 163.268 599.784 164.276 598.728C165.284 597.656 166.668 597.12 168.428 597.12C169.148 597.12 169.86 597.248 170.564 597.504C171.268 597.76 171.852 598.12 172.316 598.584L171.644 600C171.18 599.552 170.668 599.224 170.108 599.016C169.564 598.808 169.044 598.704 168.548 598.704C167.332 598.704 166.396 599.088 165.74 599.856C165.084 600.608 164.756 601.696 164.756 603.12C164.756 604.512 165.084 605.616 165.74 606.432C166.396 607.232 167.332 607.632 168.548 607.632C169.044 607.632 169.564 607.528 170.108 607.32C170.668 607.112 171.18 606.776 171.644 606.312L172.316 607.728C171.852 608.192 171.26 608.56 170.54 608.832C169.836 609.088 169.132 609.216 168.428 609.216ZM173.874 609V592.08H175.818V602.52H175.866L181.266 597.336H183.738L177.882 602.952L184.242 609H181.77L175.866 603.528H175.818V609H173.874ZM190.862 609V592.08H201.542V593.736H192.782V599.592H201.038V601.248H192.782V607.344H201.542V609H190.862ZM207.091 609L202.075 597.336H204.187L208.051 606.792L211.963 597.336H213.955L208.915 609H207.091ZM220.382 609.216C218.542 609.216 217.086 608.68 216.014 607.608C214.942 606.52 214.406 605.048 214.406 603.192C214.406 601.992 214.646 600.936 215.126 600.024C215.606 599.096 216.262 598.384 217.094 597.888C217.942 597.376 218.918 597.12 220.022 597.12C221.606 597.12 222.846 597.632 223.742 598.656C224.638 599.664 225.086 601.056 225.086 602.832V603.576H216.302C216.366 604.904 216.75 605.92 217.454 606.624C218.158 607.312 219.134 607.656 220.382 607.656C221.086 607.656 221.758 607.552 222.398 607.344C223.038 607.12 223.646 606.76 224.222 606.264L224.894 607.632C224.366 608.128 223.694 608.52 222.878 608.808C222.062 609.08 221.23 609.216 220.382 609.216ZM220.07 598.56C218.966 598.56 218.094 598.904 217.454 599.592C216.814 600.28 216.438 601.184 216.326 602.304H223.406C223.358 601.12 223.046 600.2 222.47 599.544C221.91 598.888 221.11 598.56 220.07 598.56ZM227.18 609V597.336H229.076V599.424C229.7 598.016 230.98 597.24 232.916 597.096L233.612 597.024L233.756 598.704L232.532 598.848C231.428 598.944 230.588 599.296 230.012 599.904C229.436 600.496 229.148 601.312 229.148 602.352V609H227.18ZM237.132 613.32L239.124 608.808L234.204 597.336H236.316L240.18 606.792L244.068 597.336H246.108L239.172 613.32H237.132ZM257.256 609V593.784H251.112V592.08H265.392V593.784H259.248V609H257.256ZM264.73 609V597.336H266.626V599.424C267.25 598.016 268.53 597.24 270.466 597.096L271.162 597.024L271.306 598.704L270.082 598.848C268.978 598.944 268.138 599.296 267.562 599.904C266.986 600.496 266.698 601.312 266.698 602.352V609H264.73ZM276.739 609.216C273.939 609.216 272.539 607.672 272.539 604.584V597.336H274.483V604.56C274.483 605.6 274.691 606.368 275.107 606.864C275.539 607.36 276.211 607.608 277.123 607.608C278.115 607.608 278.923 607.28 279.547 606.624C280.171 605.952 280.483 605.064 280.483 603.96V597.336H282.427V609H280.531V607.032C280.163 607.736 279.643 608.28 278.971 608.664C278.315 609.032 277.571 609.216 276.739 609.216ZM290.288 609.216C289.12 609.216 288.112 608.968 287.264 608.472C286.416 607.96 285.76 607.248 285.296 606.336C284.848 605.408 284.624 604.328 284.624 603.096C284.624 601.24 285.128 599.784 286.136 598.728C287.144 597.656 288.528 597.12 290.288 597.12C291.008 597.12 291.72 597.248 292.424 597.504C293.128 597.76 293.712 598.12 294.176 598.584L293.504 600C293.04 599.552 292.528 599.224 291.968 599.016C291.424 598.808 290.904 598.704 290.408 598.704C289.192 598.704 288.256 599.088 287.6 599.856C286.944 600.608 286.616 601.696 286.616 603.12C286.616 604.512 286.944 605.616 287.6 606.432C288.256 607.232 289.192 607.632 290.408 607.632C290.904 607.632 291.424 607.528 291.968 607.32C292.528 607.112 293.04 606.776 293.504 606.312L294.176 607.728C293.712 608.192 293.12 608.56 292.4 608.832C291.696 609.088 290.992 609.216 290.288 609.216ZM295.734 609V592.08H297.678V602.52H297.726L303.126 597.336H305.598L299.742 602.952L306.102 609H303.63L297.726 603.528H297.678V609H295.734ZM307.967 611.736L307.055 611.04C307.407 610.672 307.655 610.32 307.799 609.984C307.959 609.664 308.063 609.336 308.111 609H306.959V606.552H309.407V608.28C309.407 608.936 309.303 609.544 309.095 610.104C308.887 610.664 308.511 611.208 307.967 611.736ZM317.72 609V592.08H323.432C326.168 592.08 328.28 592.808 329.768 594.264C331.256 595.704 332 597.792 332 600.528C332 603.264 331.256 605.36 329.768 606.816C328.28 608.272 326.168 609 323.432 609H317.72ZM319.688 607.32H323.288C327.704 607.32 329.912 605.056 329.912 600.528C329.912 596.016 327.704 593.76 323.288 593.76H319.688V607.32ZM334.549 609V597.336H336.445V599.424C337.069 598.016 338.349 597.24 340.285 597.096L340.981 597.024L341.125 598.704L339.901 598.848C338.797 598.944 337.957 599.296 337.381 599.904C336.805 600.496 336.517 601.312 336.517 602.352V609H334.549ZM342.191 594.432V592.248H344.591V594.432H342.191ZM342.431 609V597.336H344.375V609H342.431ZM350.721 609L345.705 597.336H347.817L351.681 606.792L355.593 597.336H357.585L352.545 609H350.721ZM364.012 609.216C362.172 609.216 360.716 608.68 359.644 607.608C358.572 606.52 358.036 605.048 358.036 603.192C358.036 601.992 358.276 600.936 358.756 600.024C359.236 599.096 359.892 598.384 360.724 597.888C361.572 597.376 362.548 597.12 363.652 597.12C365.236 597.12 366.476 597.632 367.372 598.656C368.268 599.664 368.716 601.056 368.716 602.832V603.576H359.932C359.996 604.904 360.38 605.92 361.084 606.624C361.788 607.312 362.764 607.656 364.012 607.656C364.716 607.656 365.388 607.552 366.028 607.344C366.668 607.12 367.276 606.76 367.852 606.264L368.524 607.632C367.996 608.128 367.324 608.52 366.508 608.808C365.692 609.08 364.86 609.216 364.012 609.216ZM363.7 598.56C362.596 598.56 361.724 598.904 361.084 599.592C360.444 600.28 360.068 601.184 359.956 602.304H367.036C366.988 601.12 366.676 600.2 366.1 599.544C365.54 598.888 364.74 598.56 363.7 598.56ZM380.598 609V600.984L374.118 592.08H376.422L381.63 599.256L386.814 592.08H389.046L382.566 601.032V609H380.598ZM392.78 609.216C391.644 609.216 390.66 608.968 389.828 608.472C388.996 607.976 388.348 607.28 387.884 606.384C387.436 605.472 387.212 604.4 387.212 603.168C387.212 601.936 387.436 600.872 387.884 599.976C388.348 599.064 388.996 598.36 389.828 597.864C390.66 597.368 391.644 597.12 392.78 597.12C393.9 597.12 394.876 597.368 395.708 597.864C396.556 598.36 397.204 599.064 397.652 599.976C398.116 600.872 398.348 601.936 398.348 603.168C398.348 604.4 398.116 605.472 397.652 606.384C397.204 607.28 396.556 607.976 395.708 608.472C394.876 608.968 393.9 609.216 392.78 609.216ZM392.78 607.656C393.868 607.656 394.74 607.272 395.396 606.504C396.052 605.72 396.38 604.608 396.38 603.168C396.38 601.712 396.052 600.6 395.396 599.832C394.74 599.064 393.868 598.68 392.78 598.68C391.676 598.68 390.796 599.064 390.14 599.832C389.5 600.6 389.18 601.712 389.18 603.168C389.18 604.608 389.5 605.72 390.14 606.504C390.796 607.272 391.676 607.656 392.78 607.656ZM404.676 609.216C401.876 609.216 400.476 607.672 400.476 604.584V597.336H402.42V604.56C402.42 605.6 402.628 606.368 403.044 606.864C403.476 607.36 404.148 607.608 405.06 607.608C406.052 607.608 406.86 607.28 407.484 606.624C408.108 605.952 408.42 605.064 408.42 603.96V597.336H410.364V609H408.468V607.032C408.1 607.736 407.58 608.28 406.908 608.664C406.252 609.032 405.508 609.216 404.676 609.216ZM413.281 609V597.336H415.177V599.424C415.801 598.016 417.081 597.24 419.017 597.096L419.713 597.024L419.857 598.704L418.633 598.848C417.529 598.944 416.689 599.296 416.113 599.904C415.537 600.496 415.249 601.312 415.249 602.352V609H413.281ZM132.088 642V625.08H138.856C140.6 625.08 141.944 625.472 142.888 626.256C143.848 627.024 144.328 628.104 144.328 629.496C144.328 630.424 144.088 631.216 143.608 631.872C143.128 632.528 142.464 633.008 141.616 633.312C142.592 633.568 143.352 634.04 143.896 634.728C144.456 635.416 144.736 636.288 144.736 637.344C144.736 638.848 144.248 640 143.272 640.8C142.296 641.6 140.92 642 139.144 642H132.088ZM134.008 632.64H138.568C141.112 632.64 142.384 631.648 142.384 629.664C142.384 627.664 141.112 626.664 138.568 626.664H134.008V632.64ZM134.008 640.416H138.952C141.512 640.416 142.792 639.384 142.792 637.32C142.792 635.256 141.512 634.224 138.952 634.224H134.008V640.416ZM151.451 642.216C148.651 642.216 147.251 640.672 147.251 637.584V630.336H149.195V637.56C149.195 638.6 149.403 639.368 149.819 639.864C150.251 640.36 150.923 640.608 151.835 640.608C152.827 640.608 153.635 640.28 154.259 639.624C154.883 638.952 155.195 638.064 155.195 636.96V630.336H157.139V642H155.243V640.032C154.875 640.736 154.355 641.28 153.683 641.664C153.027 642.032 152.283 642.216 151.451 642.216ZM163.992 642.216C163.08 642.216 162.216 642.088 161.4 641.832C160.584 641.576 159.912 641.216 159.384 640.752L160.008 639.384C160.584 639.848 161.216 640.192 161.904 640.416C162.608 640.624 163.32 640.728 164.04 640.728C164.952 640.728 165.64 640.56 166.104 640.224C166.568 639.888 166.8 639.432 166.8 638.856C166.8 638.408 166.648 638.056 166.344 637.8C166.04 637.528 165.56 637.32 164.904 637.176L162.72 636.696C160.736 636.264 159.744 635.24 159.744 633.624C159.744 632.568 160.16 631.72 160.992 631.08C161.84 630.44 162.944 630.12 164.304 630.12C165.104 630.12 165.864 630.248 166.584 630.504C167.32 630.744 167.928 631.104 168.408 631.584L167.76 632.952C167.296 632.52 166.752 632.192 166.128 631.968C165.52 631.728 164.912 631.608 164.304 631.608C163.408 631.608 162.728 631.784 162.264 632.136C161.8 632.488 161.568 632.952 161.568 633.528C161.568 634.424 162.16 635 163.344 635.256L165.528 635.712C166.552 635.936 167.328 636.296 167.856 636.792C168.384 637.272 168.648 637.928 168.648 638.76C168.648 639.832 168.224 640.68 167.376 641.304C166.528 641.912 165.4 642.216 163.992 642.216ZM170.651 627.432V625.248H173.051V627.432H170.651ZM170.891 642V630.336H172.835V642H170.891ZM175.749 642V630.336H177.645V632.328C178.029 631.592 178.573 631.04 179.277 630.672C179.981 630.304 180.773 630.12 181.653 630.12C184.421 630.12 185.805 631.656 185.805 634.728V642H183.861V634.848C183.861 633.76 183.645 632.968 183.213 632.472C182.797 631.96 182.125 631.704 181.197 631.704C180.125 631.704 179.269 632.04 178.629 632.712C178.005 633.368 177.693 634.248 177.693 635.352V642H175.749ZM193.925 642.216C192.085 642.216 190.629 641.68 189.557 640.608C188.485 639.52 187.949 638.048 187.949 636.192C187.949 634.992 188.189 633.936 188.669 633.024C189.149 632.096 189.805 631.384 190.637 630.888C191.485 630.376 192.461 630.12 193.565 630.12C195.149 630.12 196.389 630.632 197.285 631.656C198.181 632.664 198.629 634.056 198.629 635.832V636.576H189.845C189.909 637.904 190.293 638.92 190.997 639.624C191.701 640.312 192.677 640.656 193.925 640.656C194.629 640.656 195.301 640.552 195.941 640.344C196.581 640.12 197.189 639.76 197.765 639.264L198.437 640.632C197.909 641.128 197.237 641.52 196.421 641.808C195.605 642.08 194.773 642.216 193.925 642.216ZM193.613 631.56C192.509 631.56 191.637 631.904 190.997 632.592C190.357 633.28 189.981 634.184 189.869 635.304H196.949C196.901 634.12 196.589 633.2 196.013 632.544C195.453 631.888 194.653 631.56 193.613 631.56ZM204.659 642.216C203.747 642.216 202.883 642.088 202.067 641.832C201.251 641.576 200.579 641.216 200.051 640.752L200.675 639.384C201.251 639.848 201.883 640.192 202.571 640.416C203.275 640.624 203.987 640.728 204.707 640.728C205.619 640.728 206.307 640.56 206.771 640.224C207.235 639.888 207.467 639.432 207.467 638.856C207.467 638.408 207.315 638.056 207.011 637.8C206.707 637.528 206.227 637.32 205.571 637.176L203.387 636.696C201.403 636.264 200.411 635.24 200.411 633.624C200.411 632.568 200.827 631.72 201.659 631.08C202.507 630.44 203.611 630.12 204.971 630.12C205.771 630.12 206.531 630.248 207.251 630.504C207.987 630.744 208.595 631.104 209.075 631.584L208.427 632.952C207.963 632.52 207.419 632.192 206.795 631.968C206.187 631.728 205.579 631.608 204.971 631.608C204.075 631.608 203.395 631.784 202.931 632.136C202.467 632.488 202.235 632.952 202.235 633.528C202.235 634.424 202.827 635 204.011 635.256L206.195 635.712C207.219 635.936 207.995 636.296 208.523 636.792C209.051 637.272 209.315 637.928 209.315 638.76C209.315 639.832 208.891 640.68 208.043 641.304C207.195 641.912 206.067 642.216 204.659 642.216ZM215.493 642.216C214.581 642.216 213.717 642.088 212.901 641.832C212.085 641.576 211.413 641.216 210.885 640.752L211.509 639.384C212.085 639.848 212.717 640.192 213.405 640.416C214.109 640.624 214.821 640.728 215.541 640.728C216.453 640.728 217.141 640.56 217.605 640.224C218.069 639.888 218.301 639.432 218.301 638.856C218.301 638.408 218.149 638.056 217.845 637.8C217.541 637.528 217.061 637.32 216.405 637.176L214.221 636.696C212.237 636.264 211.245 635.24 211.245 633.624C211.245 632.568 211.661 631.72 212.493 631.08C213.341 630.44 214.445 630.12 215.805 630.12C216.605 630.12 217.365 630.248 218.085 630.504C218.821 630.744 219.429 631.104 219.909 631.584L219.261 632.952C218.797 632.52 218.253 632.192 217.629 631.968C217.021 631.728 216.413 631.608 215.805 631.608C214.909 631.608 214.229 631.784 213.765 632.136C213.301 632.488 213.069 632.952 213.069 633.528C213.069 634.424 213.661 635 214.845 635.256L217.029 635.712C218.053 635.936 218.829 636.296 219.357 636.792C219.885 637.272 220.149 637.928 220.149 638.76C220.149 639.832 219.725 640.68 218.877 641.304C218.029 641.912 216.901 642.216 215.493 642.216ZM228.1 642V625.08H238.564V626.736H230.068V632.64H238.084V634.296H230.068V642H228.1ZM244.667 642.216C243.531 642.216 242.547 641.968 241.715 641.472C240.883 640.976 240.235 640.28 239.771 639.384C239.323 638.472 239.099 637.4 239.099 636.168C239.099 634.936 239.323 633.872 239.771 632.976C240.235 632.064 240.883 631.36 241.715 630.864C242.547 630.368 243.531 630.12 244.667 630.12C245.787 630.12 246.763 630.368 247.595 630.864C248.443 631.36 249.091 632.064 249.539 632.976C250.003 633.872 250.235 634.936 250.235 636.168C250.235 637.4 250.003 638.472 249.539 639.384C249.091 640.28 248.443 640.976 247.595 641.472C246.763 641.968 245.787 642.216 244.667 642.216ZM244.667 640.656C245.755 640.656 246.627 640.272 247.283 639.504C247.939 638.72 248.267 637.608 248.267 636.168C248.267 634.712 247.939 633.6 247.283 632.832C246.627 632.064 245.755 631.68 244.667 631.68C243.563 631.68 242.683 632.064 242.027 632.832C241.387 633.6 241.067 634.712 241.067 636.168C241.067 637.608 241.387 638.72 242.027 639.504C242.683 640.272 243.563 640.656 244.667 640.656ZM252.435 642V630.336H254.331V632.424C254.955 631.016 256.235 630.24 258.171 630.096L258.867 630.024L259.011 631.704L257.787 631.848C256.683 631.944 255.843 632.296 255.267 632.904C254.691 633.496 254.403 634.312 254.403 635.352V642H252.435ZM264.139 642L259.795 630.336H261.835L265.123 639.72L268.531 630.336H270.187L273.547 639.744L276.883 630.336H278.827L274.459 642H272.611L269.323 632.952L266.011 642H264.139ZM283.941 642.216C283.141 642.216 282.421 642.064 281.781 641.76C281.157 641.44 280.661 641.008 280.293 640.464C279.925 639.92 279.741 639.312 279.741 638.64C279.741 637.792 279.957 637.12 280.389 636.624C280.837 636.128 281.565 635.776 282.573 635.568C283.597 635.344 284.989 635.232 286.749 635.232H287.517V634.488C287.517 633.496 287.309 632.784 286.893 632.352C286.493 631.904 285.845 631.68 284.949 631.68C284.245 631.68 283.565 631.784 282.909 631.992C282.253 632.184 281.581 632.504 280.893 632.952L280.221 631.536C280.829 631.104 281.565 630.76 282.429 630.504C283.309 630.248 284.149 630.12 284.949 630.12C286.453 630.12 287.565 630.488 288.285 631.224C289.021 631.96 289.389 633.104 289.389 634.656V642H287.565V639.984C287.261 640.672 286.789 641.216 286.149 641.616C285.525 642.016 284.789 642.216 283.941 642.216ZM284.253 640.752C285.213 640.752 285.997 640.424 286.605 639.768C287.213 639.096 287.517 638.248 287.517 637.224V636.504H286.773C285.477 636.504 284.453 636.568 283.701 636.696C282.965 636.808 282.445 637.016 282.141 637.32C281.853 637.608 281.709 638.008 281.709 638.52C281.709 639.176 281.933 639.712 282.381 640.128C282.845 640.544 283.469 640.752 284.253 640.752ZM292.275 642V630.336H294.171V632.424C294.795 631.016 296.075 630.24 298.011 630.096L298.707 630.024L298.851 631.704L297.627 631.848C296.523 631.944 295.683 632.296 295.107 632.904C294.531 633.496 294.243 634.312 294.243 635.352V642H292.275ZM304.456 642.216C303.416 642.216 302.504 641.968 301.72 641.472C300.952 640.976 300.352 640.28 299.92 639.384C299.504 638.472 299.296 637.4 299.296 636.168C299.296 634.92 299.504 633.848 299.92 632.952C300.352 632.04 300.952 631.344 301.72 630.864C302.504 630.368 303.416 630.12 304.456 630.12C305.368 630.12 306.168 630.32 306.856 630.72C307.56 631.12 308.08 631.672 308.416 632.376V625.08H310.36V642H308.464V639.864C308.128 640.6 307.608 641.176 306.904 641.592C306.2 642.008 305.384 642.216 304.456 642.216ZM304.864 640.656C305.952 640.656 306.824 640.272 307.48 639.504C308.136 638.72 308.464 637.608 308.464 636.168C308.464 634.712 308.136 633.6 307.48 632.832C306.824 632.064 305.952 631.68 304.864 631.68C303.76 631.68 302.88 632.064 302.224 632.832C301.584 633.6 301.264 634.712 301.264 636.168C301.264 637.608 301.584 638.72 302.224 639.504C302.88 640.272 303.76 640.656 304.864 640.656ZM312.976 642V639.552H315.424V642H312.976Z" fill="white"/>
<path d="M193.696 559V525.16H206.272C211.936 525.16 216.304 526.616 219.376 529.528C222.48 532.44 224.032 536.616 224.032 542.056C224.032 547.464 222.48 551.64 219.376 554.584C216.304 557.528 211.936 559 206.272 559H193.696ZM199.84 553.912H205.888C213.696 553.912 217.6 549.96 217.6 542.056C217.6 534.184 213.696 530.248 205.888 530.248H199.84V553.912ZM227.859 530.488V524.632H234.579V530.488H227.859ZM228.243 559V535.528H234.243V559H228.243ZM247.629 559.48C245.645 559.48 243.789 559.24 242.061 558.76C240.333 558.28 238.893 557.592 237.741 556.696L239.277 552.76C240.461 553.56 241.789 554.184 243.261 554.632C244.733 555.048 246.205 555.256 247.677 555.256C249.213 555.256 250.349 555 251.085 554.488C251.853 553.944 252.237 553.24 252.237 552.376C252.237 551.032 251.245 550.168 249.261 549.784L244.461 548.872C240.397 548.104 238.365 545.992 238.365 542.536C238.365 541 238.781 539.672 239.613 538.552C240.477 537.432 241.661 536.568 243.165 535.96C244.669 535.352 246.397 535.048 248.349 535.048C250.013 535.048 251.613 535.288 253.149 535.768C254.685 536.216 255.997 536.904 257.085 537.832L255.453 541.768C254.525 541 253.405 540.392 252.093 539.944C250.813 539.496 249.581 539.272 248.397 539.272C246.829 539.272 245.661 539.544 244.893 540.088C244.157 540.632 243.789 541.352 243.789 542.248C243.789 543.656 244.701 544.52 246.525 544.84L251.325 545.752C253.405 546.136 254.973 546.84 256.029 547.864C257.117 548.888 257.661 550.264 257.661 551.992C257.661 554.328 256.749 556.168 254.925 557.512C253.101 558.824 250.669 559.48 247.629 559.48ZM261.034 567.64V535.528H266.89V539.272C267.562 537.992 268.57 536.968 269.914 536.2C271.29 535.432 272.842 535.048 274.57 535.048C276.618 535.048 278.41 535.544 279.946 536.536C281.514 537.528 282.73 538.936 283.594 540.76C284.458 542.552 284.89 544.712 284.89 547.24C284.89 549.736 284.458 551.912 283.594 553.768C282.73 555.592 281.53 557 279.994 557.992C278.458 558.984 276.65 559.48 274.57 559.48C272.906 559.48 271.402 559.128 270.058 558.424C268.746 557.688 267.738 556.712 267.034 555.496V567.64H261.034ZM272.89 554.92C274.682 554.92 276.122 554.28 277.21 553C278.298 551.688 278.842 549.768 278.842 547.24C278.842 544.68 278.298 542.776 277.21 541.528C276.122 540.248 274.682 539.608 272.89 539.608C271.098 539.608 269.658 540.248 268.57 541.528C267.482 542.776 266.938 544.68 266.938 547.24C266.938 549.768 267.482 551.688 268.57 553C269.658 554.28 271.098 554.92 272.89 554.92ZM299.08 559.48C296.648 559.48 294.536 558.984 292.744 557.992C290.952 557 289.56 555.592 288.568 553.768C287.576 551.912 287.08 549.736 287.08 547.24C287.08 544.744 287.576 542.584 288.568 540.76C289.56 538.936 290.952 537.528 292.744 536.536C294.536 535.544 296.648 535.048 299.08 535.048C301.512 535.048 303.624 535.544 305.416 536.536C307.208 537.528 308.6 538.936 309.592 540.76C310.584 542.584 311.08 544.744 311.08 547.24C311.08 549.736 310.584 551.912 309.592 553.768C308.6 555.592 307.208 557 305.416 557.992C303.624 558.984 301.512 559.48 299.08 559.48ZM299.08 554.92C300.872 554.92 302.312 554.28 303.4 553C304.488 551.688 305.032 549.768 305.032 547.24C305.032 544.68 304.488 542.776 303.4 541.528C302.312 540.248 300.872 539.608 299.08 539.608C297.288 539.608 295.848 540.248 294.76 541.528C293.672 542.776 293.128 544.68 293.128 547.24C293.128 549.768 293.672 551.688 294.76 553C295.848 554.28 297.288 554.92 299.08 554.92ZM326.665 559V525.16H339.241C344.905 525.16 349.273 526.616 352.345 529.528C355.449 532.44 357.001 536.616 357.001 542.056C357.001 547.464 355.449 551.64 352.345 554.584C349.273 557.528 344.905 559 339.241 559H326.665ZM332.809 553.912H338.857C346.665 553.912 350.569 549.96 350.569 542.056C350.569 534.184 346.665 530.248 338.857 530.248H332.809V553.912ZM361.212 559V535.528H367.068V539.656C368.22 536.872 370.684 535.336 374.46 535.048L376.284 534.904L376.668 539.992L373.212 540.328C369.276 540.712 367.308 542.728 367.308 546.376V559H361.212ZM388.898 559.48C386.466 559.48 384.354 558.984 382.562 557.992C380.77 557 379.378 555.592 378.386 553.768C377.394 551.912 376.898 549.736 376.898 547.24C376.898 544.744 377.394 542.584 378.386 540.76C379.378 538.936 380.77 537.528 382.562 536.536C384.354 535.544 386.466 535.048 388.898 535.048C391.33 535.048 393.442 535.544 395.234 536.536C397.026 537.528 398.418 538.936 399.41 540.76C400.402 542.584 400.898 544.744 400.898 547.24C400.898 549.736 400.402 551.912 399.41 553.768C398.418 555.592 397.026 557 395.234 557.992C393.442 558.984 391.33 559.48 388.898 559.48ZM388.898 554.92C390.69 554.92 392.13 554.28 393.218 553C394.306 551.688 394.85 549.768 394.85 547.24C394.85 544.68 394.306 542.776 393.218 541.528C392.13 540.248 390.69 539.608 388.898 539.608C387.106 539.608 385.666 540.248 384.578 541.528C383.49 542.776 382.946 544.68 382.946 547.24C382.946 549.768 383.49 551.688 384.578 553C385.666 554.28 387.106 554.92 388.898 554.92ZM404.41 559V535.528H410.266V539.176C411.066 537.832 412.138 536.808 413.482 536.104C414.858 535.4 416.394 535.048 418.09 535.048C423.626 535.048 426.394 538.264 426.394 544.696V559H420.394V544.984C420.394 543.16 420.042 541.832 419.338 541C418.666 540.168 417.61 539.752 416.17 539.752C414.41 539.752 413.002 540.312 411.946 541.432C410.922 542.52 410.41 543.976 410.41 545.8V559H404.41Z" fill="white"/>
<path d="M174.792 550.292C175.375 550.292 175.833 550.75 175.833 551.333V553.417C175.833 556.875 173.042 559.667 169.583 559.667C169.583 556.229 166.771 553.417 163.333 553.417C159.896 553.417 157.083 556.229 157.083 559.667H152.917C152.917 556.229 150.104 553.417 146.667 553.417C143.229 553.417 140.417 556.229 140.417 559.667C136.958 559.667 134.167 556.875 134.167 553.417V549.25C134.167 548.104 135.104 547.167 136.25 547.167H156.042C157.423 547.167 158.748 546.618 159.725 545.641C160.701 544.664 161.25 543.34 161.25 541.958V530.5C161.25 529.354 162.188 528.417 163.333 528.417H165.083C166.583 528.417 167.958 529.229 168.708 530.521L170.042 532.854C170.229 533.188 169.979 533.625 169.583 533.625C168.202 533.625 166.877 534.174 165.9 535.151C164.924 536.127 164.375 537.452 164.375 538.833V545.083C164.375 546.465 164.924 547.789 165.9 548.766C166.877 549.743 168.202 550.292 169.583 550.292H174.792Z" fill="white"/>
<path d="M146.667 563.833C147.772 563.833 148.832 563.394 149.613 562.613C150.394 561.832 150.833 560.772 150.833 559.667C150.833 558.562 150.394 557.502 149.613 556.72C148.832 555.939 147.772 555.5 146.667 555.5C145.562 555.5 144.502 555.939 143.72 556.72C142.939 557.502 142.5 558.562 142.5 559.667C142.5 560.772 142.939 561.832 143.72 562.613C144.502 563.394 145.562 563.833 146.667 563.833ZM163.333 563.833C164.438 563.833 165.498 563.394 166.28 562.613C167.061 561.832 167.5 560.772 167.5 559.667C167.5 558.562 167.061 557.502 166.28 556.72C165.498 555.939 164.438 555.5 163.333 555.5C162.228 555.5 161.168 555.939 160.387 556.72C159.606 557.502 159.167 558.562 159.167 559.667C159.167 560.772 159.606 561.832 160.387 562.613C161.168 563.394 162.228 563.833 163.333 563.833ZM175.833 544.104V547.167H169.583C168.437 547.167 167.5 546.229 167.5 545.083V538.833C167.5 537.688 168.437 536.75 169.583 536.75H172.271L175.292 542.042C175.646 542.667 175.833 543.375 175.833 544.104ZM157.25 522.167H141.854C140.072 522.167 138.346 522.787 136.971 523.919C135.595 525.051 134.655 526.627 134.312 528.375H143.417C144.208 528.375 144.833 529.021 144.833 529.813C144.833 530.604 144.208 531.229 143.417 531.229H134.167V534.104H139.583C140.375 534.104 141.021 534.75 141.021 535.542C141.021 536.333 140.375 536.958 139.583 536.958H134.167V539.833H135.771C136.562 539.833 137.208 540.479 137.208 541.271C137.208 542.063 136.562 542.688 135.771 542.688H134.167V543.167C134.167 544.313 135.104 545.25 136.25 545.25H155.312C157.437 545.25 159.167 543.521 159.167 541.396V524.083C159.167 523.021 158.312 522.167 157.25 522.167ZM134.312 528.375H131.958C131.167 528.375 130.521 529.021 130.521 529.813C130.521 530.604 131.167 531.229 131.958 531.229H134.167V529.854C134.167 529.354 134.229 528.854 134.312 528.375ZM133.854 534.104H131.958C131.167 534.104 130.521 534.75 130.521 535.542C130.521 536.333 131.167 536.958 131.958 536.958H134.167V534.104H133.854ZM133.854 539.833H131.958C131.167 539.833 130.521 540.479 130.521 541.271C130.521 542.063 131.167 542.688 131.958 542.688H134.167V539.833H133.854Z" fill="white"/>
<g clip-path="url(#clip1_56_282)">
<path d="M835.89 784.542C808.655 791.84 777.085 788.009 741.984 773.139C724.802 765.858 708.195 756.689 692.134 747.82C679.705 740.956 666.853 733.862 653.826 727.694C617.499 710.492 586.315 704.458 558.493 709.246C521.058 715.68 491.142 741.465 462.223 766.393C437.487 787.717 411.906 809.767 381.269 820.431C334.507 836.725 283.581 824.457 239.933 810.322C232.846 808.026 225.63 805.599 218.651 803.249C180.562 790.427 141.177 777.17 100.84 778.043C54.7973 779.036 2.31968 804.915 -8.89956 852.443L-10.4355 852.078C0.96763 803.768 54.152 777.471 100.807 776.461C141.418 775.582 180.936 788.886 219.154 801.75C226.128 804.098 233.339 806.526 240.416 808.817C283.814 822.872 334.403 835.067 380.749 818.938C411.1 808.371 436.565 786.423 461.189 765.197C490.27 740.128 520.337 714.215 558.222 707.689C586.373 702.845 617.867 708.92 654.497 726.267C667.568 732.456 680.442 739.565 692.891 746.438C708.917 755.287 725.486 764.434 742.595 771.685C778.723 786.994 811.047 790.491 838.617 782.121C867.431 773.363 896.679 745.196 894.126 710.241L895.701 710.128C898.312 745.9 868.476 774.7 839.075 783.633C838.019 783.954 836.954 784.261 835.886 784.547L835.89 784.542Z" fill="#1877F2"/>
<path d="M202.389 891.137C194.049 893.371 185.488 894.996 176.712 895.878C152.308 898.329 127.508 894.91 103.523 891.602C99.1767 891.003 94.8335 890.406 90.4957 889.839C62.3133 886.17 32.4734 883.956 5.13251 892.536C-24.9786 901.988 -47.359 924.822 -51.8892 950.71L-53.4454 950.431C-48.8143 923.967 -26.0068 900.647 4.65679 891.024C32.2712 882.359 62.3318 884.575 90.6942 888.27C95.0374 888.835 99.3841 889.434 103.734 890.035C127.63 893.328 152.336 896.735 176.555 894.304C238.523 888.083 290.179 844.302 323.636 811.91C333.659 802.207 343.637 792.032 353.286 782.19C383.46 751.419 414.659 719.599 452.103 697.236C511.327 661.864 586.302 652.166 652.651 671.292C669.567 676.17 686.161 682.879 702.209 689.369C713.839 694.07 725.861 698.934 737.905 703.057C772.737 714.98 801.775 717.813 826.676 711.721C858.159 704.029 882.892 679.476 886.912 652.013L888.474 652.247C884.365 680.332 859.065 705.397 827.054 713.263C801.849 719.427 772.523 716.58 737.401 704.558C725.315 700.422 713.271 695.552 701.623 690.839C685.612 684.365 669.056 677.669 652.22 672.815C586.278 653.807 511.771 663.444 452.911 698.598C415.642 720.858 384.514 752.605 354.411 783.305C344.756 793.151 334.771 803.337 324.734 813.052C295.83 841.032 253.401 877.471 202.392 891.139L202.389 891.137Z" fill="#1877F2"/>
<path d="M366.682 960.998C351.181 965.151 335.648 966.251 320.6 964.025C280.114 958.043 247.176 929.576 220.299 902.516C216.222 898.413 212.172 894.254 208.115 890.085C184.594 865.926 160.274 840.942 129.693 826.441C78.9404 802.372 14.6047 812.121 -26.7593 850.152L-27.8263 848.994C14.0014 810.537 79.0556 800.678 130.373 825.017C161.21 839.64 185.631 864.726 209.25 888.988C213.305 893.154 217.352 897.311 221.422 901.409C248.12 928.283 280.806 956.554 320.838 962.471C367.862 969.419 419.872 943.422 459.952 892.928C477.737 870.52 492.478 845.371 506.733 821.046C519.648 799.009 533 776.22 548.609 755.479C567.34 730.584 618.223 673.189 685.971 677.884C709.549 679.516 731.927 688.726 753.567 697.632L756.349 698.776C779.827 708.422 802.877 717.08 826.723 717.077C853.725 717.074 877.649 704.354 887.663 684.664L889.069 685.376C878.789 705.588 854.321 718.651 826.72 718.653C802.588 718.654 779.378 709.94 755.749 700.234L752.966 699.088C731.441 690.229 709.185 681.069 685.861 679.454C618.895 674.812 568.45 731.736 549.871 756.423C534.316 777.091 520.988 799.839 508.095 821.837C493.814 846.208 479.045 871.408 461.187 893.903C433.536 928.737 400.209 952.011 366.688 960.996L366.682 960.998Z" fill="#1877F2"/>
<path d="M470.217 905.304C401.127 923.819 328.184 889.214 278.72 861.108C270.028 856.169 261.18 850.997 252.626 845.992C201.346 816.003 148.319 784.993 89.2507 780.587C21.0741 775.502 -47.4819 808.952 -85.3938 865.805L-86.7074 864.933C-68.0836 837.002 -41.573 814.107 -10.0367 798.72C21.4961 783.331 55.8729 776.519 89.3665 779.016C148.797 783.448 201.984 814.552 253.42 844.631C261.974 849.633 270.815 854.804 279.497 859.737C330.321 888.615 406.045 924.399 476.505 901.811C512.506 890.272 545.492 864.426 580.318 820.469C589.725 808.595 598.818 796.119 607.61 784.052C624.792 760.475 642.562 736.093 663.5 715.083C684.883 693.628 728.761 657.879 782.384 659.532C814.361 660.516 844.804 674.848 871.663 687.495L923.036 711.686L922.361 713.111L870.988 688.921C844.268 676.339 813.981 662.08 782.334 661.107C729.306 659.476 685.822 694.92 664.617 716.195C643.761 737.119 626.03 761.45 608.883 784.98C600.08 797.058 590.982 809.55 581.554 821.447C546.524 865.661 513.298 891.674 476.987 903.314C474.736 904.034 472.475 904.698 470.214 905.304L470.217 905.304Z" fill="#1877F2"/>
</g>
</g>
<defs>
<linearGradient id="paint0_linear_56_282" x1="881" y1="5.17246e-05" x2="-43.6762" y2="938.99" gradientUnits="userSpaceOnUse">
<stop stop-color="#4AA3FF"/>
<stop offset="1" stop-color="#0305A1"/>
</linearGradient>
<clipPath id="clip0_56_282">
<rect width="881" height="982" fill="white"/>
</clipPath>
<clipPath id="clip1_56_282">
<rect width="1014" height="324" fill="white" transform="translate(-78 651)"/>
</clipPath>
</defs>
</svg>
